<svg width="240" height="91" viewBox="0 0 240 91" fill="none" xmlns="http://www.w3.org/2000/svg">
<path d="M46.8 42.984L43.152 43.944V36.648H46.848V31.416H43.152V22.392H37.68V31.416H32.112V36.648H37.68V45.288C35.232 45.864 32.976 46.392 31.152 46.776L32.352 52.296L37.68 50.856V60.696C37.68 61.416 37.44 61.608 36.864 61.608C36.24 61.656 34.272 61.656 32.4 61.56C33.12 63.144 33.84 65.592 33.984 67.128C37.296 67.128 39.552 66.936 41.136 65.976C42.672 65.112 43.152 63.576 43.152 60.744V49.32C44.592 48.888 46.032 48.504 47.424 48.072L46.8 42.984ZM55.824 54.84H61.392V59.592H55.824V54.84ZM61.392 40.584H55.824V36.12H61.392V40.584ZM61.392 50.04H55.824V45.384H61.392V50.04ZM76.272 59.592H66.672V54.84H74.16V50.04H66.672V45.384H74.16V40.584H66.672V36.12H75.408V31.08H67.248C68.352 28.776 69.456 26.184 70.512 23.688L64.464 22.44C63.792 25.032 62.688 28.296 61.584 31.08H56.304C57.36 28.632 58.272 26.136 58.992 23.592L53.52 22.296C51.744 28.824 48.576 35.256 44.64 39.24C45.744 40.44 47.52 43.032 48.24 44.28C48.96 43.512 49.68 42.648 50.352 41.736V67.128H55.824V64.776H76.272V59.592ZM89.04 67.272C91.344 65.496 92.832 62.808 93.888 60.264L89.712 58.536C88.848 60.792 87.168 63.288 85.104 64.728L89.04 67.272ZM95.136 59.736C95.616 61.896 95.952 64.824 95.856 66.696L100.32 66.024C100.272 64.2 99.888 61.32 99.36 59.16L95.136 59.736ZM101.232 59.736C102.144 61.656 103.056 64.248 103.344 65.928L107.52 64.632C107.136 62.952 106.176 60.408 105.168 58.584L101.232 59.736ZM88.512 43.32V41.736H94.176V44.04H88.512V43.32ZM94.176 36.6V38.568H88.512V36.6H94.176ZM104.544 38.568H98.976V36.6H104.544V38.568ZM115.392 41.736V44.04H109.392V41.736H115.392ZM98.976 44.04V41.736H104.544V44.04H98.976ZM97.152 47.16H120.96V38.568H109.392V36.6H122.928V32.76H104.448V30.456H99.12V32.76H83.184V43.32C83.184 49.368 82.848 57.96 79.056 63.96C80.352 64.488 82.704 65.88 83.712 66.744C87.072 61.368 88.176 53.592 88.416 47.16H91.824C91.104 50.856 90.048 55.224 89.088 58.104L94.272 58.584L94.464 57.864H110.16L107.28 59.064C108.336 60.408 109.536 62.28 110.064 63.528L113.856 61.752C113.328 60.648 112.224 59.064 111.12 57.864H117.024C116.736 60.888 116.352 62.232 115.92 62.712C115.584 63.048 115.248 63.096 114.624 63.096C114 63.096 112.8 63.096 111.36 62.952C112.032 64.104 112.464 65.832 112.56 67.08C114.48 67.176 116.304 67.128 117.312 66.984C118.512 66.888 119.472 66.552 120.336 65.64C121.392 64.536 121.968 61.8 122.4 55.896C122.496 55.32 122.544 54.168 122.544 54.168H95.472L95.904 52.488H123.12V48.888H96.768L97.152 47.16ZM113.376 24.84V22.344H107.664V24.84H96.48V22.344H90.816V24.84H80.784V29.352H90.816V31.848H96.48V29.352H107.664V31.848H113.376V29.352H123.312V24.84H113.376ZM171.888 55.944V50.952H151.824C152.016 49.992 152.16 49.032 152.256 48.024H171.36V42.936H152.832V40.488H167.52V35.688H152.832V33.24H169.44V28.2H160.56C161.52 26.952 162.672 25.416 163.824 23.736L157.68 22.2C156.96 23.88 155.568 26.28 154.416 27.816L155.76 28.2H143.856L144.96 27.72C144.336 26.088 142.896 23.832 141.408 22.248L136.32 24.216C137.28 25.368 138.24 26.856 138.864 28.2H130.56V33.24H146.976V35.688H132.768V40.488H146.976V42.936H128.64V48.024H146.208C146.064 49.08 145.92 50.04 145.728 50.952H128.352V55.944H143.52C141.12 58.872 136.608 60.792 127.488 61.992C128.544 63.24 129.888 65.592 130.32 67.128C142.176 65.208 147.504 61.8 150.048 56.664C153.792 62.952 159.6 66.072 169.488 67.224C170.208 65.64 171.648 63.24 172.896 61.944C164.784 61.416 159.312 59.592 155.952 55.944H171.888ZM209.76 53.592C207.936 54.792 205.92 55.944 204.144 56.904C202.8 55.896 201.648 54.84 200.688 53.592H209.76ZM189.408 46.488H206.4V49.128H189.408V46.488ZM200.832 35.496V31.8H194.976V35.496H187.872C191.904 32.856 195.456 29.928 197.808 27.192C200.304 29.976 204.048 32.952 208.128 35.496H200.832ZM189.408 39.912H206.4V42.408H189.408V39.912ZM213.6 50.904C213.168 51.24 212.688 51.624 212.16 51.96V37.896C213.888 38.808 215.616 39.672 217.296 40.392C218.256 38.712 219.552 36.696 220.896 35.304C213.408 32.904 205.776 28.152 200.4 22.2H194.688C190.896 27.144 183.12 32.712 175.248 35.832C176.4 36.984 177.84 39.192 178.56 40.536C180.288 39.768 182.064 38.904 183.744 37.992V61.08C181.92 61.224 180.24 61.368 178.752 61.464L179.52 66.696C185.04 66.216 192.576 65.544 199.68 64.824L199.584 59.784L189.408 60.648V53.592H194.928C199.152 61.128 206.064 65.448 216.528 67.176C217.248 65.64 218.784 63.384 219.936 62.184C215.664 61.704 211.968 60.792 208.8 59.496C211.776 58.008 214.992 56.136 217.728 54.312L213.6 50.904Z" fill="#02A5B6"/>
<circle cx="5" cy="25" r="5" fill="#FD5A5A"/>
<circle cx="235" cy="73" r="5" fill="#FD5A5A"/>
<circle cx="220.5" cy="65.5" r="2.5" fill="#FBAE8C"/>
<circle cx="202" cy="73" r="2" fill="#FFC634"/>
<circle cx="214.5" cy="78.5" r="3.5" fill="#4BA9FF"/>
<circle cx="233.5" cy="56.5" r="3.5" fill="#FFE600"/>
<circle cx="29.5" cy="32.5" r="2.5" fill="#FFE600"/>
<circle cx="38" cy="13" r="3" fill="#4BA9FF"/>
<circle cx="18.5" cy="38.5" r="3.5" fill="#56FF67"/>
<circle cx="21.5" cy="19.5" r="3.5" fill="#FA8E60"/>
</svg>
