<svg width="240" height="91" viewBox="0 0 240 91" fill="none" xmlns="http://www.w3.org/2000/svg">
<path d="M66.72 41.352H53.712V38.856H66.72V41.352ZM66.72 47.64H53.712V45.144H66.72V47.64ZM66.72 53.976H53.712V51.432H66.72V53.976ZM48.288 34.728V58.104H72.384V34.728H61.584C61.968 33.912 62.4 33.048 62.784 32.136H75.6V27.528H68.256C69.024 26.376 69.888 24.984 70.752 23.544L65.088 22.344C64.512 23.832 63.456 25.992 62.544 27.528H56.544L57.12 27.288C56.64 25.896 55.296 23.832 54 22.392L49.488 24.072C50.304 25.08 51.12 26.376 51.696 27.528H45.024V32.136H56.64C56.496 33 56.352 33.864 56.16 34.728H48.288ZM44.544 30.696C42.912 28.44 39.408 25.464 36.528 23.448L32.304 26.904C35.136 29.016 38.544 32.184 40.032 34.488L44.544 30.696ZM43.344 40.968H32.256V46.2H37.776V56.328C35.664 57.96 33.264 59.544 31.2 60.744L33.984 66.696C36.624 64.68 38.736 62.808 40.848 60.936C43.968 64.68 47.904 66.024 53.808 66.264C59.52 66.504 69.168 66.408 74.928 66.12C75.216 64.488 76.08 61.704 76.704 60.36C70.32 60.84 59.52 60.984 53.904 60.744C48.912 60.552 45.312 59.256 43.344 56.04V40.968ZM90.672 38.808H95.52V33.384H90.672V22.968H85.344V33.384H79.728V38.808H85.344V52.344C82.944 53.256 80.832 54.072 79.104 54.696L81.408 60.456C85.824 58.44 91.296 55.848 96.384 53.304L95.088 48.264C93.648 48.888 92.16 49.512 90.672 50.136V38.808ZM107.04 61.176C104.112 61.176 103.68 60.744 103.68 57.96V43.128L107.664 41.4V56.04H112.992V39.096L117.12 37.272C117.12 44.088 117.072 47.592 116.976 48.36C116.784 49.224 116.496 49.416 115.92 49.416C115.488 49.416 114.432 49.416 113.616 49.32C114.24 50.52 114.672 52.632 114.816 54.12C116.352 54.12 118.416 54.072 119.808 53.448C121.248 52.824 122.112 51.672 122.256 49.464C122.496 47.496 122.592 41.736 122.592 32.616L122.784 31.656L118.8 30.264L117.792 30.936L116.784 31.608L112.992 33.24V22.296H107.664V35.544L103.68 37.224V26.952H98.208V39.576L93.504 41.544L95.616 46.632L98.208 45.528V57.864C98.208 64.488 100.08 66.264 106.56 66.264H116.784C122.4 66.264 124.08 63.96 124.848 57.24C123.264 56.952 121.056 56.04 119.856 55.176C119.424 60.072 118.944 61.176 116.304 61.176H107.04ZM171.888 55.944V50.952H151.824C152.016 49.992 152.16 49.032 152.256 48.024H171.36V42.936H152.832V40.488H167.52V35.688H152.832V33.24H169.44V28.2H160.56C161.52 26.952 162.672 25.416 163.824 23.736L157.68 22.2C156.96 23.88 155.568 26.28 154.416 27.816L155.76 28.2H143.856L144.96 27.72C144.336 26.088 142.896 23.832 141.408 22.248L136.32 24.216C137.28 25.368 138.24 26.856 138.864 28.2H130.56V33.24H146.976V35.688H132.768V40.488H146.976V42.936H128.64V48.024H146.208C146.064 49.08 145.92 50.04 145.728 50.952H128.352V55.944H143.52C141.12 58.872 136.608 60.792 127.488 61.992C128.544 63.24 129.888 65.592 130.32 67.128C142.176 65.208 147.504 61.8 150.048 56.664C153.792 62.952 159.6 66.072 169.488 67.224C170.208 65.64 171.648 63.24 172.896 61.944C164.784 61.416 159.312 59.592 155.952 55.944H171.888ZM209.76 53.592C207.936 54.792 205.92 55.944 204.144 56.904C202.8 55.896 201.648 54.84 200.688 53.592H209.76ZM189.408 46.488H206.4V49.128H189.408V46.488ZM200.832 35.496V31.8H194.976V35.496H187.872C191.904 32.856 195.456 29.928 197.808 27.192C200.304 29.976 204.048 32.952 208.128 35.496H200.832ZM189.408 39.912H206.4V42.408H189.408V39.912ZM213.6 50.904C213.168 51.24 212.688 51.624 212.16 51.96V37.896C213.888 38.808 215.616 39.672 217.296 40.392C218.256 38.712 219.552 36.696 220.896 35.304C213.408 32.904 205.776 28.152 200.4 22.2H194.688C190.896 27.144 183.12 32.712 175.248 35.832C176.4 36.984 177.84 39.192 178.56 40.536C180.288 39.768 182.064 38.904 183.744 37.992V61.08C181.92 61.224 180.24 61.368 178.752 61.464L179.52 66.696C185.04 66.216 192.576 65.544 199.68 64.824L199.584 59.784L189.408 60.648V53.592H194.928C199.152 61.128 206.064 65.448 216.528 67.176C217.248 65.64 218.784 63.384 219.936 62.184C215.664 61.704 211.968 60.792 208.8 59.496C211.776 58.008 214.992 56.136 217.728 54.312L213.6 50.904Z" fill="#02A5B6"/>
<circle cx="5" cy="25" r="5" fill="#FD5A5A"/>
<circle cx="235" cy="73" r="5" fill="#FD5A5A"/>
<circle cx="220.5" cy="65.5" r="2.5" fill="#FBAE8C"/>
<circle cx="202" cy="73" r="2" fill="#FFC634"/>
<circle cx="214.5" cy="78.5" r="3.5" fill="#4BA9FF"/>
<circle cx="233.5" cy="56.5" r="3.5" fill="#FFE600"/>
<circle cx="29.5" cy="32.5" r="2.5" fill="#FFE600"/>
<circle cx="38" cy="13" r="3" fill="#4BA9FF"/>
<circle cx="18.5" cy="38.5" r="3.5" fill="#56FF67"/>
<circle cx="21.5" cy="19.5" r="3.5" fill="#FA8E60"/>
</svg>
