<svg width="84" height="129" viewBox="0 0 84 129" fill="none" xmlns="http://www.w3.org/2000/svg">
<path d="M41.5368 0C18.5927 0 0 18.4566 0 41.2329V87.7671C0 110.543 18.5927 129 41.5368 129C64.481 129 83.0736 110.543 83.0736 87.7671V41.2329C83.0736 18.4566 64.2832 0 41.5368 0ZM53.2067 33.968H63.2942C68.4368 33.968 72.9861 30.4338 74.1729 25.5251C76.1508 29.4521 77.3376 33.968 77.7332 38.6804H53.2067V33.968ZM70.217 19.0457C70.0192 19.242 70.0192 19.6347 69.8214 20.0274L69.228 23.758C68.8324 26.7032 66.2611 28.863 63.2942 28.863H53.2067V7.06849C59.9317 9.42466 65.8655 13.5479 70.217 19.0457ZM48.4596 5.69406C48.2618 6.08676 48.064 6.47945 48.064 6.87215V64.0091C48.064 65.3836 49.2508 66.5617 50.6354 66.5617C52.0199 66.5617 53.2067 65.3836 53.2067 64.0091V53.2101H63.0964C66.0633 53.2101 68.6346 55.3699 69.0302 58.5114L69.8214 64.4018C70.0192 65.7763 71.0082 66.5617 72.3927 66.5617C72.5905 66.5617 72.5905 66.5617 72.7883 66.5617C74.1729 66.3653 75.1619 65.1872 74.9641 63.8128L74.1729 57.9224C73.5795 52.4247 68.8324 48.3014 63.0964 48.3014H53.2067V43.7854H77.7332V72.0594H44.7015V67.7397C44.7015 66.3653 43.5148 65.1872 42.1302 65.1872C40.7456 65.1872 39.5589 66.3653 39.5589 67.7397V72.0594H5.14265V43.589H29.6692V48.105H19.7794C14.2412 48.105 9.49413 52.2283 8.70295 57.726L7.91177 63.6164C7.91177 65.1872 8.90075 66.5616 10.2853 66.758C10.4831 66.758 10.4831 66.758 10.6809 66.758C11.8677 66.758 13.0544 65.7763 13.2522 64.5982L14.0434 58.7078C14.439 55.7626 17.0103 53.4064 19.9772 53.4064H29.8669V64.2055C29.8669 65.5799 31.0537 66.758 32.4383 66.758C33.8228 66.758 35.0096 65.5799 35.0096 64.2055V7.06849C35.0096 6.6758 34.8118 6.08676 34.614 5.89041C36.7897 5.49772 39.1633 5.30137 41.5368 5.30137C43.9103 5.30137 46.2839 5.30137 48.4596 5.69406ZM42.1302 90.1233C34.0206 86.7854 28.6802 82.0731 27.2956 76.968H56.9648C55.5802 82.0731 50.2398 86.7854 42.1302 90.1233ZM8.70295 25.5251C9.88972 30.4338 14.439 33.968 19.5816 33.968H29.6692V38.484H5.34045C5.53824 33.968 6.9228 29.4521 8.70295 25.5251ZM29.6692 7.06849V28.863H19.5816C16.6147 28.863 14.0434 26.7032 13.6478 23.758L13.0544 20.0274C13.0544 19.6347 12.8566 19.4384 12.6588 19.0457C17.2081 13.5479 22.9441 9.42466 29.6692 7.06849ZM5.14265 87.5708V76.968H21.9552C22.9441 83.0548 27.889 88.7489 35.8008 92.8722C22.153 99.9406 18.1971 110.151 17.0103 114.274C9.69192 107.598 5.14265 98.1735 5.14265 87.5708ZM21.3618 117.808C21.5596 117.612 21.5596 117.219 21.7574 116.826C21.7574 116.63 23.5375 103.082 42.1302 95.621C60.5251 102.886 62.3052 116.237 62.503 116.826C62.503 117.023 62.503 117.023 62.503 117.219C56.5692 121.342 49.2508 123.895 41.5368 123.895C34.0206 123.699 27.0978 121.539 21.3618 117.808ZM66.8545 113.489C65.4699 108.973 61.1185 99.3516 48.2618 92.8722C55.9758 88.7489 60.9207 83.2511 62.1074 76.968H77.931V87.5708C77.931 97.7808 73.5795 107.009 66.8545 113.489Z" fill="#848D60"/>
</svg>
