<svg width="142" height="60" viewBox="0 0 308 130" fill="none" xmlns="http://www.w3.org/2000/svg">
<path d="M69.5421 39.8C73.6307 39.8 77 43.056 77 47.2V87.9C77 92.081 73.6307 95.3 69.5421 95.3C69.5421 97.446 67.7629 99 65.6429 99C63.75 99 61.8571 97.446 61.8571 95.3H39.1429C39.1429 97.446 37.25 99 35.3571 99C33.2371 99 31.4579 97.446 31.4579 95.3C27.3693 95.3 24 92.081 24 87.9V47.2C24 43.056 27.3693 39.8 31.4579 39.8H39.1429V28.7C39.1429 26.554 40.8843 25 42.9286 25H58.0714C60.1157 25 61.8571 26.554 61.8571 28.7V39.8H69.5421ZM56.1786 39.8V30.55H44.8214V39.8H56.1786ZM35.3571 50.9V84.2H41.0357V50.9H35.3571ZM59.9643 50.9V84.2H65.6429V50.9H59.9643ZM47.6607 50.9V84.2H53.3393V50.9H47.6607Z" fill="white"/>
<path d="M122.912 58.424V66.728H102.944V58.424H122.912ZM97.088 74.12H102.944V72.2H122.912V74.072H129.056V53H97.088V74.12ZM117.968 37.496C119.456 38.792 121.04 40.232 122.576 41.768C117.056 42.008 111.488 42.248 106.304 42.44C108.608 38.936 111.008 34.904 113.024 31.112L106.448 29C104.816 33.224 102.08 38.504 99.392 42.68C96.704 42.728 94.208 42.824 92 42.872L92.336 48.632C101.264 48.296 114.656 47.768 127.328 47.096C128.624 48.68 129.68 50.168 130.4 51.464L135.344 47.672C132.896 43.544 127.184 38.024 122.432 34.136L117.968 37.496Z" fill="white"/>
<path d="M169.856 30.152H161.504V32.888H169.856V30.152ZM149.504 34.76C148.064 33.224 144.944 31.208 142.592 29.912L139.328 33.8C141.728 35.24 144.704 37.448 146.048 39.032L149.504 34.76ZM148.592 47C147.008 45.512 143.888 43.64 141.44 42.488L138.32 46.472C140.72 47.768 143.84 49.88 145.232 51.368L148.592 47ZM144.464 73.592C146.384 68.936 148.352 63.368 149.888 58.232L145.376 55.352C143.6 60.968 141.152 67.016 139.424 70.76L144.464 73.592ZM166.832 50.552H164.432V48.44H166.832V50.552ZM153.2 53.528H156.8V43.976L158.288 43.832C158.384 44.312 158.432 44.744 158.48 45.128L161.072 44.168C160.88 42.68 160.208 40.376 159.392 38.648L156.992 39.512C157.136 39.896 157.28 40.328 157.424 40.76L155.36 40.808C156.848 39.128 158.384 37.16 159.776 35.336V37.064H171.248V36.536C172.352 37.496 173.408 38.648 174.128 39.608C173.696 40.088 173.264 40.616 172.88 41.048L170.624 41.096L170.96 44.552L175.088 44.312V46.088L171.968 45.368C171.584 47.144 171.056 49.064 170.288 50.648V45.896H161.12V53.096H170.288V51.512C171.152 51.896 172.304 52.52 172.88 52.952C173.696 51.416 174.56 49.112 175.088 46.952V53.528H178.736V44.12L180.608 43.976C180.704 44.408 180.8 44.792 180.848 45.128L183.728 43.88C183.392 42.296 182.48 39.944 181.52 38.216L178.784 39.32C179.024 39.8 179.264 40.328 179.504 40.856L176.864 40.904C178.592 39.032 180.416 36.824 182 34.856L178.832 33.08C178.208 34.184 177.344 35.432 176.384 36.728C176.096 36.392 175.76 36.008 175.376 35.672C176.384 34.28 177.488 32.504 178.592 30.872L175.328 29.288C174.8 30.488 173.936 32.216 173.12 33.704L172.496 33.224L171.248 34.904V34.088H159.776V34.904L156.896 33.272C156.368 34.232 155.648 35.288 154.88 36.44C154.592 36.104 154.208 35.816 153.872 35.48C154.784 34.088 155.84 32.408 156.848 30.776L153.632 29.144C153.104 30.44 152.288 32.168 151.472 33.608C151.232 33.464 150.944 33.272 150.704 33.128L148.928 35.912C150.224 36.872 151.664 38.168 152.72 39.32C152.288 39.896 151.808 40.472 151.376 41L148.448 41.096L148.832 44.552C150.176 44.456 151.664 44.36 153.2 44.216V46.088L150.032 45.368C149.6 47.528 148.928 49.832 147.824 51.56C148.688 51.896 150.128 52.616 150.848 53.048C151.76 51.464 152.624 49.112 153.2 46.952V53.528ZM178.88 46.232C179.696 48.2 180.56 50.744 180.848 52.424L183.872 51.416C183.488 49.784 182.576 47.288 181.76 45.368L178.88 46.232ZM161.168 44.6H170.288V42.008H161.168V44.6ZM170.288 38.312H161.168V40.904H170.288V38.312ZM160.976 50.6C160.736 49.256 160.208 47.144 159.68 45.56L156.944 46.184C157.424 47.864 157.904 50.024 158.096 51.416L160.976 50.6ZM157.616 63.8L158 62.312H179.264V54.344H152.048V57.56H173.984V59.048H153.488C152.912 62.024 152 65.576 151.136 68.024L156.272 68.696C156.416 68.264 156.56 67.784 156.704 67.304H175.616C175.184 68.648 174.752 69.416 174.224 69.8C173.744 70.136 173.168 70.184 172.208 70.184C171.008 70.184 167.84 70.136 164.96 69.848C165.776 71.048 166.4 72.776 166.496 74.024C169.472 74.12 172.4 74.168 173.936 74.12C175.856 74.024 177.2 73.784 178.4 72.872C179.696 71.816 180.56 69.704 181.328 65.864C181.52 65.192 181.616 63.8 181.616 63.8H157.616Z" fill="white"/>
<path d="M205.664 46.616H197.072V41.912H205.712C205.184 42.632 204.56 43.256 203.936 43.832C205.28 44.648 207.584 46.472 208.592 47.48C210.416 45.56 212.096 43.112 213.488 40.28H230.624V35.096H215.696C216.224 33.56 216.704 31.976 217.088 30.392L211.472 29.336C210.56 33.32 209.024 37.16 206.96 40.232V36.632H199.856V29.336H194.384V36.632H187.184V41.912H192.08V49.304C192.08 55.688 191.408 63.848 186.128 70.808C187.52 71.72 189.344 73.16 190.352 74.312C195.68 67.352 196.88 59.096 197.024 51.752H200.48C200.288 63.32 200.048 67.4 199.376 68.408C199.04 68.984 198.608 69.128 198.032 69.128C197.264 69.128 196.016 69.08 194.528 68.936C195.296 70.328 195.824 72.488 195.92 74.024C197.84 74.072 199.712 74.024 200.864 73.832C202.16 73.592 203.072 73.112 203.984 71.816C205.184 70.04 205.424 64.328 205.664 48.824V46.616ZM227.936 49.16C226.688 50.696 224.864 52.52 223.04 54.104C222.608 52.328 222.224 50.456 221.936 48.584C224.864 47.048 227.552 45.416 229.52 43.784L225.44 40.808C221.168 44.12 212.576 47.624 205.808 48.968C207.008 50.216 208.4 52.328 209.168 53.72L210.176 53.432V74.12H215.6V51.464C216.176 51.224 216.704 50.984 217.28 50.744C219.008 61.064 221.936 69.416 228.272 74.024C229.136 72.488 230.864 70.28 232.16 69.224C228.704 67.016 226.256 63.368 224.576 58.904C226.928 57.176 229.712 54.92 231.968 52.808L227.936 49.16Z" fill="white"/>
<path d="M257.504 48.392C257.312 57.608 257.072 60.92 256.496 61.784C256.16 62.264 255.824 62.408 255.296 62.408C254.72 62.408 253.76 62.408 252.512 62.264C253.232 63.464 253.664 65.432 253.76 66.824C255.392 66.824 256.928 66.824 257.936 66.632C259.136 66.44 259.904 66.008 260.672 64.856C261.776 63.32 262.064 58.568 262.352 45.704V43.736H254.816V40.232H261.248C262.256 40.904 263.744 42.152 264.608 42.968V45.848H272C271.472 46.664 270.896 47.528 270.32 48.248H268.688V51.176H263.408V55.688H268.688V61.352C268.688 61.832 268.544 61.976 267.968 61.976C267.44 61.976 265.664 61.976 263.936 61.928C264.56 63.224 265.328 65.24 265.472 66.632C268.208 66.632 270.176 66.536 271.664 65.768C273.2 65 273.536 63.656 273.536 61.448V55.688H279.104V51.176H273.536V50.648C275.408 48.584 277.376 45.992 278.816 43.64L275.84 41.384L274.88 41.672H266C266.576 40.808 267.152 39.8 267.632 38.792H278.816V34.088H269.648C270.08 32.792 270.464 31.496 270.8 30.152L266.048 29.096C265.328 32.264 264.128 35.432 262.592 37.976V35.528H257.408V29.384H252.128V35.528H246.464V40.232H250.16V46.04C250.16 51.128 249.776 58.232 245.696 63.032C246.704 63.752 248.336 65.336 249.056 66.344C253.568 61.496 254.576 54.248 254.768 48.392H257.504ZM245.6 38.36C244.448 35.96 241.568 32.744 239.12 30.392L234.608 33.224C237.008 35.672 239.744 39.176 240.752 41.528L245.6 38.36ZM245.168 47.96H234.944V53.192H239.84V63.8C238.016 65.432 236 67.016 234.272 68.264L236.96 73.688C239.216 71.624 241.04 69.752 242.816 67.832C245.696 71.576 249.68 72.968 255.488 73.208C261.488 73.496 272.144 73.4 278.24 73.064C278.48 71.528 279.344 69.032 279.92 67.736C273.2 68.312 261.392 68.456 255.44 68.168C250.496 67.976 246.992 66.584 245.168 63.32V47.96Z" fill="white"/>
<path d="M96.0437 98.7514V86.6105H92V85.1602H101.803V86.6105H97.7591V98.7514H96.0437Z" fill="white"/>
<path d="M104.844 99C104.013 99 103.319 98.7514 102.76 98.2541C102.216 97.7569 101.944 97.0525 101.944 96.1409C101.944 95.0359 102.427 94.1934 103.394 93.6133C104.36 93.0193 105.905 92.605 108.029 92.3702C108.029 92.0525 107.995 91.7417 107.927 91.4378C107.873 91.134 107.771 90.8646 107.621 90.6298C107.471 90.395 107.26 90.2086 106.988 90.0704C106.729 89.9185 106.396 89.8425 105.987 89.8425C105.415 89.8425 104.878 89.953 104.374 90.174C103.87 90.395 103.421 90.6436 103.026 90.9199L102.372 89.7389C102.835 89.4351 103.4 89.145 104.067 88.8688C104.735 88.5787 105.47 88.4337 106.273 88.4337C107.485 88.4337 108.363 88.8135 108.908 89.5732C109.452 90.3191 109.725 91.3204 109.725 92.5773V98.7514H108.336L108.193 97.5497H108.132C107.655 97.9503 107.144 98.2956 106.6 98.5856C106.055 98.8619 105.47 99 104.844 99ZM105.334 97.6326C105.81 97.6326 106.259 97.5221 106.682 97.3011C107.104 97.0663 107.553 96.7279 108.029 96.2859V93.489C107.199 93.5994 106.498 93.7307 105.926 93.8826C105.368 94.0345 104.912 94.2141 104.558 94.4213C104.217 94.6285 103.965 94.8702 103.802 95.1464C103.652 95.4088 103.577 95.6989 103.577 96.0166C103.577 96.5967 103.748 97.0111 104.088 97.2597C104.428 97.5083 104.844 97.6326 105.334 97.6326Z" fill="white"/>
<path d="M112.847 98.7514V88.6823H114.522V98.7514H112.847ZM113.705 86.6105C113.378 86.6105 113.099 86.5069 112.868 86.2997C112.65 86.0925 112.541 85.8301 112.541 85.5124C112.541 85.1809 112.65 84.9185 112.868 84.7251C113.099 84.518 113.378 84.4144 113.705 84.4144C114.032 84.4144 114.304 84.518 114.522 84.7251C114.753 84.9185 114.869 85.1809 114.869 85.5124C114.869 85.8301 114.753 86.0925 114.522 86.2997C114.304 86.5069 114.032 86.6105 113.705 86.6105Z" fill="white"/>
<path d="M119.446 98.7514L116.689 88.6823H118.404L119.874 94.5041C119.983 94.9876 120.086 95.4572 120.181 95.913C120.276 96.3688 120.371 96.8315 120.467 97.3011H120.548C120.657 96.8315 120.766 96.3688 120.875 95.913C120.984 95.4434 121.1 94.9738 121.222 94.5041L122.754 88.6823H124.388L125.94 94.5041C126.063 94.9876 126.178 95.4572 126.287 95.913C126.41 96.3688 126.525 96.8315 126.634 97.3011H126.716C126.825 96.8315 126.927 96.3688 127.022 95.913C127.118 95.4572 127.22 94.9876 127.329 94.5041L128.779 88.6823H130.372L127.717 98.7514H125.674L124.245 93.3439C124.122 92.8605 124.007 92.384 123.898 91.9144C123.802 91.4448 123.694 90.9544 123.571 90.4434H123.489C123.38 90.9544 123.271 91.4517 123.163 91.9351C123.054 92.4047 122.931 92.8812 122.795 93.3646L121.406 98.7514H119.446Z" fill="white"/>
<path d="M134.62 99C133.789 99 133.095 98.7514 132.537 98.2541C131.992 97.7569 131.72 97.0525 131.72 96.1409C131.72 95.0359 132.203 94.1934 133.17 93.6133C134.136 93.0193 135.682 92.605 137.806 92.3702C137.806 92.0525 137.772 91.7417 137.704 91.4378C137.649 91.134 137.547 90.8646 137.397 90.6298C137.247 90.395 137.036 90.2086 136.764 90.0704C136.505 89.9185 136.172 89.8425 135.763 89.8425C135.192 89.8425 134.654 89.953 134.15 90.174C133.646 90.395 133.197 90.6436 132.802 90.9199L132.149 89.7389C132.611 89.4351 133.177 89.145 133.844 88.8688C134.511 88.5787 135.246 88.4337 136.049 88.4337C137.261 88.4337 138.139 88.8135 138.684 89.5732C139.228 90.3191 139.501 91.3204 139.501 92.5773V98.7514H138.112L137.969 97.5497H137.908C137.431 97.9503 136.921 98.2956 136.376 98.5856C135.831 98.8619 135.246 99 134.62 99ZM135.11 97.6326C135.586 97.6326 136.036 97.5221 136.458 97.3011C136.88 97.0663 137.329 96.7279 137.806 96.2859V93.489C136.975 93.5994 136.274 93.7307 135.702 93.8826C135.144 94.0345 134.688 94.2141 134.334 94.4213C133.993 94.6285 133.742 94.8702 133.578 95.1464C133.428 95.4088 133.354 95.6989 133.354 96.0166C133.354 96.5967 133.524 97.0111 133.864 97.2597C134.204 97.5083 134.62 97.6326 135.11 97.6326Z" fill="white"/>
<path d="M142.623 98.7514V88.6823H144.012L144.155 90.1326H144.216C144.693 89.6492 145.19 89.2486 145.707 88.9309C146.238 88.5994 146.851 88.4337 147.545 88.4337C148.594 88.4337 149.356 88.7652 149.833 89.4282C150.323 90.0912 150.568 91.0718 150.568 92.3702V98.7514H148.893V92.5981C148.893 91.645 148.743 90.9613 148.444 90.547C148.144 90.1188 147.668 89.9047 147.014 89.9047C146.497 89.9047 146.041 90.0359 145.646 90.2983C145.251 90.5608 144.802 90.9475 144.298 91.4586V98.7514H142.623Z" fill="white"/>
<path d="M160.821 98.7514V86.6105H156.778V85.1602H166.58V86.6105H162.537V98.7514H160.821Z" fill="white"/>
<path d="M167.892 98.7514V88.6823H169.281L169.424 90.5055H169.485C169.826 89.8702 170.234 89.366 170.711 88.9931C171.201 88.6202 171.732 88.4337 172.304 88.4337C172.698 88.4337 173.052 88.5028 173.366 88.6409L173.039 90.1326C172.875 90.0773 172.726 90.0359 172.589 90.0083C172.453 89.9807 172.283 89.9669 172.079 89.9669C171.657 89.9669 171.214 90.1395 170.751 90.4848C170.302 90.8301 169.907 91.4309 169.567 92.2873V98.7514H167.892Z" fill="white"/>
<path d="M176.761 99C175.931 99 175.236 98.7514 174.678 98.2541C174.133 97.7569 173.861 97.0525 173.861 96.1409C173.861 95.0359 174.344 94.1934 175.311 93.6133C176.278 93.0193 177.823 92.605 179.947 92.3702C179.947 92.0525 179.913 91.7417 179.845 91.4378C179.79 91.134 179.688 90.8646 179.539 90.6298C179.389 90.395 179.178 90.2086 178.905 90.0704C178.647 89.9185 178.313 89.8425 177.905 89.8425C177.333 89.8425 176.795 89.953 176.291 90.174C175.788 90.395 175.338 90.6436 174.943 90.9199L174.29 89.7389C174.753 89.4351 175.318 89.145 175.985 88.8688C176.652 88.5787 177.387 88.4337 178.191 88.4337C179.402 88.4337 180.281 88.8135 180.825 89.5732C181.37 90.3191 181.642 91.3204 181.642 92.5773V98.7514H180.253L180.11 97.5497H180.049C179.573 97.9503 179.062 98.2956 178.517 98.5856C177.973 98.8619 177.387 99 176.761 99ZM177.251 97.6326C177.728 97.6326 178.177 97.5221 178.599 97.3011C179.021 97.0663 179.47 96.7279 179.947 96.2859V93.489C179.116 93.5994 178.415 93.7307 177.843 93.8826C177.285 94.0345 176.829 94.2141 176.475 94.4213C176.135 94.6285 175.883 94.8702 175.72 95.1464C175.57 95.4088 175.495 95.6989 175.495 96.0166C175.495 96.5967 175.665 97.0111 176.005 97.2597C176.346 97.5083 176.761 97.6326 177.251 97.6326Z" fill="white"/>
<path d="M186.909 98.7514L183.335 88.6823H185.071L186.95 94.4006C187.1 94.8978 187.25 95.395 187.399 95.8923C187.563 96.3895 187.719 96.8798 187.869 97.3633H187.951C188.1 96.8798 188.25 96.3895 188.4 95.8923C188.55 95.395 188.7 94.8978 188.849 94.4006L190.728 88.6823H192.382L188.87 98.7514H186.909Z" fill="white"/>
<path d="M198.241 99C197.574 99 196.948 98.8826 196.363 98.6478C195.791 98.3992 195.287 98.0539 194.851 97.6119C194.429 97.1561 194.096 96.6036 193.851 95.9544C193.606 95.3052 193.483 94.5663 193.483 93.7376C193.483 92.9088 193.606 92.1699 193.851 91.5207C194.109 90.8577 194.443 90.2983 194.851 89.8425C195.273 89.3867 195.75 89.0414 196.281 88.8066C196.812 88.558 197.363 88.4337 197.935 88.4337C198.561 88.4337 199.12 88.5442 199.61 88.7652C200.113 88.9862 200.529 89.3039 200.855 89.7182C201.196 90.1326 201.455 90.6298 201.632 91.2099C201.809 91.7901 201.897 92.4392 201.897 93.1575C201.897 93.337 201.89 93.5166 201.877 93.6961C201.877 93.8619 201.863 94.0069 201.836 94.1312H195.137C195.205 95.2086 195.532 96.0649 196.117 96.7003C196.717 97.3218 197.493 97.6326 198.446 97.6326C198.922 97.6326 199.358 97.5635 199.753 97.4254C200.161 97.2735 200.549 97.0801 200.917 96.8453L201.509 97.9641C201.073 98.2403 200.59 98.482 200.059 98.6892C199.528 98.8964 198.922 99 198.241 99ZM195.117 92.9088H200.427C200.427 91.8867 200.209 91.1133 199.773 90.5884C199.351 90.0497 198.752 89.7804 197.976 89.7804C197.622 89.7804 197.282 89.8494 196.955 89.9876C196.642 90.1257 196.356 90.3329 196.097 90.6091C195.838 90.8715 195.621 91.1961 195.444 91.5829C195.28 91.9696 195.171 92.4116 195.117 92.9088Z" fill="white"/>
<path d="M206.126 99C205.487 99 205.03 98.8066 204.758 98.4199C204.486 98.0331 204.35 97.4669 204.35 96.721V84H206.024V96.8453C206.024 97.1215 206.072 97.3149 206.167 97.4254C206.263 97.5359 206.371 97.5912 206.494 97.5912C206.548 97.5912 206.596 97.5912 206.637 97.5912C206.691 97.5912 206.766 97.5773 206.862 97.5497L207.086 98.8343C206.977 98.8895 206.848 98.9309 206.698 98.9586C206.548 98.9862 206.358 99 206.126 99Z" fill="white"/>
<path d="M215.277 98.7514L212.439 85.1602H214.195L215.604 92.5566C215.727 93.3025 215.856 94.0345 215.992 94.7528C216.128 95.471 216.258 96.203 216.38 96.9489H216.462C216.612 96.203 216.768 95.471 216.932 94.7528C217.095 94.0207 217.251 93.2887 217.401 92.5566L219.26 85.1602H220.812L222.67 92.5566C222.834 93.2749 222.997 94 223.16 94.732C223.324 95.4641 223.487 96.203 223.651 96.9489H223.732C223.855 96.203 223.977 95.471 224.1 94.7528C224.222 94.0207 224.352 93.2887 224.488 92.5566L225.897 85.1602H227.531L224.753 98.7514H222.711L220.689 90.5677C220.567 90.0428 220.451 89.5318 220.342 89.0345C220.247 88.5235 220.145 88.0055 220.036 87.4807H219.954C219.845 88.0055 219.729 88.5235 219.607 89.0345C219.498 89.5318 219.389 90.0428 219.28 90.5677L217.299 98.7514H215.277Z" fill="white"/>
<path d="M233.722 99C233.054 99 232.428 98.8826 231.843 98.6478C231.271 98.3992 230.767 98.0539 230.331 97.6119C229.909 97.1561 229.576 96.6036 229.331 95.9544C229.086 95.3052 228.963 94.5663 228.963 93.7376C228.963 92.9088 229.086 92.1699 229.331 91.5207C229.589 90.8577 229.923 90.2983 230.331 89.8425C230.753 89.3867 231.23 89.0414 231.761 88.8066C232.292 88.558 232.843 88.4337 233.415 88.4337C234.041 88.4337 234.6 88.5442 235.09 88.7652C235.594 88.9862 236.009 89.3039 236.336 89.7182C236.676 90.1326 236.935 90.6298 237.112 91.2099C237.289 91.7901 237.377 92.4392 237.377 93.1575C237.377 93.337 237.37 93.5166 237.357 93.6961C237.357 93.8619 237.343 94.0069 237.316 94.1312H230.617C230.685 95.2086 231.012 96.0649 231.598 96.7003C232.197 97.3218 232.973 97.6326 233.926 97.6326C234.402 97.6326 234.838 97.5635 235.233 97.4254C235.641 97.2735 236.029 97.0801 236.397 96.8453L236.989 97.9641C236.553 98.2403 236.07 98.482 235.539 98.6892C235.008 98.8964 234.402 99 233.722 99ZM230.597 92.9088H235.907C235.907 91.8867 235.689 91.1133 235.253 90.5884C234.831 90.0497 234.232 89.7804 233.456 89.7804C233.102 89.7804 232.762 89.8494 232.435 89.9876C232.122 90.1257 231.836 90.3329 231.577 90.6091C231.318 90.8715 231.101 91.1961 230.924 91.5829C230.76 91.9696 230.651 92.4116 230.597 92.9088Z" fill="white"/>
<path d="M244.221 99C243.758 99 243.274 98.8895 242.771 98.6685C242.28 98.4337 241.818 98.116 241.382 97.7155H241.321L241.178 98.7514H239.83V84H241.504V88.0193L241.464 89.8425C241.913 89.442 242.403 89.1105 242.934 88.8481C243.465 88.5718 244.01 88.4337 244.568 88.4337C245.208 88.4337 245.773 88.558 246.263 88.8066C246.753 89.0414 247.161 89.3867 247.488 89.8425C247.829 90.2845 248.08 90.8232 248.244 91.4586C248.421 92.0801 248.509 92.7776 248.509 93.5511C248.509 94.4075 248.394 95.174 248.162 95.8508C247.931 96.5276 247.618 97.1008 247.223 97.5704C246.828 98.0401 246.372 98.3992 245.854 98.6478C245.337 98.8826 244.792 99 244.221 99ZM243.935 97.5704C244.343 97.5704 244.718 97.4807 245.058 97.3011C245.412 97.1077 245.711 96.8453 245.957 96.5138C246.215 96.1685 246.413 95.7472 246.549 95.25C246.699 94.7528 246.773 94.1934 246.773 93.5718C246.773 93.0193 246.726 92.5152 246.63 92.0594C246.535 91.6036 246.379 91.2169 246.161 90.8992C245.957 90.5677 245.684 90.3122 245.344 90.1326C245.017 89.953 244.622 89.8633 244.159 89.8633C243.356 89.8633 242.471 90.3191 241.504 91.2307V96.5138C241.94 96.9006 242.369 97.1768 242.791 97.3425C243.227 97.4945 243.608 97.5704 243.935 97.5704Z" fill="white"/>
<path d="M253.712 99C253.004 99 252.33 98.8688 251.69 98.6064C251.05 98.3439 250.492 98.0124 250.015 97.6119L250.853 96.4724C251.288 96.8315 251.731 97.1215 252.18 97.3425C252.643 97.5635 253.174 97.674 253.773 97.674C254.426 97.674 254.917 97.5221 255.243 97.2182C255.57 96.9144 255.733 96.5414 255.733 96.0994C255.733 95.837 255.665 95.6091 255.529 95.4157C255.393 95.2224 255.216 95.0566 254.998 94.9185C254.794 94.7666 254.556 94.6354 254.283 94.5249C254.011 94.4144 253.739 94.3039 253.467 94.1934C253.113 94.0691 252.759 93.9309 252.405 93.779C252.051 93.6133 251.731 93.4199 251.445 93.1989C251.172 92.9641 250.948 92.6948 250.771 92.3909C250.594 92.087 250.505 91.721 250.505 91.2928C250.505 90.8923 250.58 90.5193 250.73 90.174C250.893 89.8149 251.118 89.511 251.404 89.2624C251.703 89 252.064 88.7997 252.486 88.6616C252.908 88.5097 253.385 88.4337 253.916 88.4337C254.542 88.4337 255.114 88.5442 255.631 88.7652C256.162 88.9862 256.618 89.2555 257 89.5732L256.203 90.6506C255.863 90.3881 255.509 90.174 255.141 90.0083C254.774 89.8425 254.372 89.7597 253.936 89.7597C253.31 89.7597 252.847 89.9047 252.548 90.1948C252.262 90.4848 252.119 90.8232 252.119 91.2099C252.119 91.4448 252.18 91.6519 252.303 91.8315C252.425 91.9972 252.588 92.1492 252.793 92.2873C252.997 92.4116 253.228 92.529 253.487 92.6395C253.759 92.7362 254.038 92.8398 254.324 92.9503C254.678 93.0884 255.032 93.2334 255.386 93.3854C255.754 93.5373 256.081 93.7307 256.367 93.9655C256.653 94.1865 256.884 94.4627 257.061 94.7942C257.252 95.1257 257.347 95.5262 257.347 95.9959C257.347 96.4102 257.265 96.797 257.102 97.1561C256.952 97.5152 256.721 97.8329 256.407 98.1091C256.108 98.3854 255.727 98.5994 255.264 98.7514C254.814 98.9171 254.297 99 253.712 99Z" fill="white"/>
<path d="M259.674 98.7514V88.6823H261.349V98.7514H259.674ZM260.532 86.6105C260.205 86.6105 259.926 86.5069 259.694 86.2997C259.477 86.0925 259.368 85.8301 259.368 85.5124C259.368 85.1809 259.477 84.9185 259.694 84.7251C259.926 84.518 260.205 84.4144 260.532 84.4144C260.858 84.4144 261.131 84.518 261.349 84.7251C261.58 84.9185 261.696 85.1809 261.696 85.5124C261.696 85.8301 261.58 86.0925 261.349 86.2997C261.131 86.5069 260.858 86.6105 260.532 86.6105Z" fill="white"/>
<path d="M267.824 99C267.293 99 266.844 98.9171 266.477 98.7514C266.123 98.5856 265.83 98.3577 265.598 98.0677C265.381 97.7776 265.224 97.4254 265.129 97.011C265.033 96.5967 264.986 96.1409 264.986 95.6436V90.0704H263.515V88.7859L265.067 88.6823L265.272 85.8646H266.681V88.6823H269.356V90.0704H266.681V95.6644C266.681 96.2859 266.79 96.7693 267.008 97.1146C267.239 97.4461 267.641 97.6119 268.212 97.6119C268.389 97.6119 268.58 97.5843 268.784 97.529C268.989 97.4738 269.172 97.4116 269.336 97.3425L269.662 98.6271C269.39 98.7238 269.091 98.8066 268.764 98.8757C268.451 98.9586 268.138 99 267.824 99Z" fill="white"/>
<path d="M275.344 99C274.677 99 274.051 98.8826 273.465 98.6478C272.894 98.3992 272.39 98.0539 271.954 97.6119C271.532 97.1561 271.199 96.6036 270.954 95.9544C270.708 95.3052 270.586 94.5663 270.586 93.7376C270.586 92.9088 270.708 92.1699 270.954 91.5207C271.212 90.8577 271.546 90.2983 271.954 89.8425C272.376 89.3867 272.853 89.0414 273.384 88.8066C273.915 88.558 274.466 88.4337 275.038 88.4337C275.664 88.4337 276.223 88.5442 276.713 88.7652C277.216 88.9862 277.632 89.3039 277.958 89.7182C278.299 90.1326 278.558 90.6298 278.735 91.2099C278.911 91.7901 279 92.4392 279 93.1575C279 93.337 278.993 93.5166 278.98 93.6961C278.98 93.8619 278.966 94.0069 278.939 94.1312H272.24C272.308 95.2086 272.635 96.0649 273.22 96.7003C273.819 97.3218 274.596 97.6326 275.549 97.6326C276.025 97.6326 276.461 97.5635 276.856 97.4254C277.264 97.2735 277.652 97.0801 278.02 96.8453L278.612 97.9641C278.176 98.2403 277.693 98.482 277.162 98.6892C276.631 98.8964 276.025 99 275.344 99ZM272.22 92.9088H277.53C277.53 91.8867 277.312 91.1133 276.876 90.5884C276.454 90.0497 275.855 89.7804 275.079 89.7804C274.725 89.7804 274.385 89.8494 274.058 89.9876C273.745 90.1257 273.459 90.3329 273.2 90.6091C272.941 90.8715 272.723 91.1961 272.546 91.5829C272.383 91.9696 272.274 92.4116 272.22 92.9088Z" fill="white"/>
</svg>
