<svg width="240" height="91" viewBox="0 0 240 91" fill="none" xmlns="http://www.w3.org/2000/svg">
<path d="M40.176 22.392C38.064 29.448 34.512 36.456 30.672 40.92C31.584 42.408 32.976 45.72 33.408 47.064C34.416 45.912 35.424 44.568 36.384 43.128V67.128H41.808V33.288C43.2 30.216 44.448 27.048 45.456 23.976L40.176 22.392ZM65.136 57.096C63.84 58.056 62.256 58.92 60.288 59.688C58.464 58.968 56.832 58.104 55.536 57.096H65.136ZM53.328 45.912V47.592L50.304 45.96C49.968 46.44 49.536 46.968 49.104 47.448V45.144H57.36C58.896 46.296 60.576 47.88 61.344 49.128L64.8 47.064C64.368 46.488 63.744 45.816 62.976 45.144H71.28V46.68C70.944 46.344 70.608 46.056 70.272 45.768L66.768 47.544C67.2 47.928 67.68 48.408 68.112 48.84C67.008 48.648 65.712 48.216 64.992 47.832C64.8 49.224 64.56 49.464 63.6 49.464H59.376C58.08 49.464 57.792 49.32 57.792 48.312V45.912H53.328ZM53.712 40.392H67.008V41.88H53.712V40.392ZM67.008 32.808V34.248H53.712V32.808H67.008ZM67.008 38.088H53.712V36.552H67.008V38.088ZM69.456 53.688L68.496 53.88H58.752C59.28 53.448 59.76 52.968 60.192 52.488H64.224C66.96 52.488 68.064 51.72 68.496 49.272C69.744 50.616 70.944 52.056 71.568 53.16L75.264 51.192C74.832 50.472 74.112 49.608 73.344 48.744H76.368V41.88H72.336V30.024H62.064L62.832 28.344H75.36V24.264H45.936V28.344H56.928C56.784 28.92 56.688 29.496 56.544 30.024H48.624V41.88H44.256V48.744H47.856C47.088 49.464 46.224 50.136 45.36 50.616L48.72 53.304C50.496 52.056 52.08 50.28 53.328 48.6C53.376 50.28 53.712 51.288 54.72 51.864C52.32 53.976 48.528 55.944 43.536 57.384C44.544 58.104 45.984 59.736 46.656 60.84C48.24 60.216 49.728 59.592 51.072 58.92C52.08 59.88 53.184 60.744 54.384 61.512C51.216 62.232 47.616 62.856 43.584 63.24C44.592 64.344 45.792 66.12 46.32 67.368C51.504 66.648 56.112 65.64 60 64.296C64.032 65.832 68.736 66.744 73.968 67.272C74.64 65.88 75.888 63.864 76.944 62.712C73.152 62.52 69.6 62.088 66.384 61.464C69.216 59.832 71.376 57.864 72.864 55.608L69.456 53.688ZM91.776 53.544H112.608V55.656H91.776V53.544ZM91.776 48.264H112.608V50.328H91.776V48.264ZM91.776 42.936H112.608V45H91.776V42.936ZM118.416 59.112V39.528H102.768C105.216 37.8 106.656 35.736 107.472 33.624H112.32V38.664H117.408V33.624H123.456V29.496H108.432C108.48 29.016 108.48 28.536 108.48 28.104V27.864C112.944 27.48 117.888 26.856 121.584 25.8L118.128 22.392C115.536 23.16 111.36 23.88 107.376 24.36L103.536 23.448V27.816C103.536 29.64 103.248 31.56 101.856 33.384V29.496H88.656C88.704 29.016 88.704 28.488 88.704 28.056V27.816C92.88 27.48 97.44 26.808 100.896 25.752L97.392 22.392C94.992 23.16 91.152 23.88 87.408 24.312L83.76 23.4V27.768C83.76 30.936 83.184 34.872 79.68 38.04C80.832 38.712 82.656 40.536 83.424 41.592C85.968 39.288 87.312 36.36 88.032 33.624H92.256V38.616H97.344V33.624H101.664C100.992 34.44 100.08 35.256 98.88 36.024C99.888 36.696 101.472 38.328 102.192 39.528H86.256V59.112H93.36C90.048 60.744 84.816 62.28 80.16 63.144C81.36 64.152 83.376 66.216 84.384 67.32C89.232 65.976 95.376 63.624 99.36 61.032L94.992 59.112H109.008L104.688 61.608C109.536 63.432 114.432 65.688 117.168 67.272L123.792 64.728C120.528 63.144 115.008 60.84 110.112 59.112H118.416ZM146.592 39.624H138V34.92H146.64C146.112 35.64 145.488 36.264 144.864 36.84C146.208 37.656 148.512 39.48 149.52 40.488C151.344 38.568 153.024 36.12 154.416 33.288H171.552V28.104H156.624C157.152 26.568 157.632 24.984 158.016 23.4L152.4 22.344C151.488 26.328 149.952 30.168 147.888 33.24V29.64H140.784V22.344H135.312V29.64H128.112V34.92H133.008V42.312C133.008 48.696 132.336 56.856 127.056 63.816C128.448 64.728 130.272 66.168 131.28 67.32C136.608 60.36 137.808 52.104 137.952 44.76H141.408C141.216 56.328 140.976 60.408 140.304 61.416C139.968 61.992 139.536 62.136 138.96 62.136C138.192 62.136 136.944 62.088 135.456 61.944C136.224 63.336 136.752 65.496 136.848 67.032C138.768 67.08 140.64 67.032 141.792 66.84C143.088 66.6 144 66.12 144.912 64.824C146.112 63.048 146.352 57.336 146.592 41.832V39.624ZM168.864 42.168C167.616 43.704 165.792 45.528 163.968 47.112C163.536 45.336 163.152 43.464 162.864 41.592C165.792 40.056 168.48 38.424 170.448 36.792L166.368 33.816C162.096 37.128 153.504 40.632 146.736 41.976C147.936 43.224 149.328 45.336 150.096 46.728L151.104 46.44V67.128H156.528V44.472C157.104 44.232 157.632 43.992 158.208 43.752C159.936 54.072 162.864 62.424 169.2 67.032C170.064 65.496 171.792 63.288 173.088 62.232C169.632 60.024 167.184 56.376 165.504 51.912C167.856 50.184 170.64 47.928 172.896 45.816L168.864 42.168ZM183.12 31.224H212.688V34.584H218.544V26.088H200.88V22.392H195.024V26.088H177.552V35.256H183.12V31.224ZM186.336 32.424C183.84 37.992 179.472 43.368 174.912 46.632C175.968 47.928 177.6 50.808 178.176 52.008C179.52 50.952 180.864 49.704 182.16 48.312V67.176H187.536V41.544C189.12 39.192 190.512 36.696 191.664 34.248L186.336 32.424ZM211.488 52.344H198.336V48.888H211.488V52.344ZM198.336 60.744V56.952H211.488V60.744H198.336ZM218.88 40.536V35.544H191.232V40.536H201.456C201.216 41.736 200.928 42.936 200.688 44.088H192.912V67.272H198.336V65.592H211.488V67.224H217.152V44.088H206.544L207.84 40.536H218.88Z" fill="#02A5B6"/>
<circle cx="5" cy="25" r="5" fill="#FD5A5A"/>
<circle cx="235" cy="73" r="5" fill="#FD5A5A"/>
<circle cx="220.5" cy="65.5" r="2.5" fill="#FBAE8C"/>
<circle cx="202" cy="73" r="2" fill="#FFC634"/>
<circle cx="214.5" cy="78.5" r="3.5" fill="#4BA9FF"/>
<circle cx="233.5" cy="56.5" r="3.5" fill="#FFE600"/>
<circle cx="29.5" cy="32.5" r="2.5" fill="#FFE600"/>
<circle cx="38" cy="13" r="3" fill="#4BA9FF"/>
<circle cx="18.5" cy="38.5" r="3.5" fill="#56FF67"/>
<circle cx="21.5" cy="19.5" r="3.5" fill="#FA8E60"/>
</svg>
