<svg width="240" height="91" viewBox="0 0 240 91" fill="none" xmlns="http://www.w3.org/2000/svg">
<path d="M37.296 67.176C39.552 64.92 41.76 61.32 42.96 58.056L37.44 56.616C36.192 59.832 33.984 63.144 31.872 65.016L37.296 67.176ZM45.792 58.248C46.272 60.984 46.56 64.632 46.56 66.744L52.224 66.024C52.176 63.96 51.696 60.408 51.12 57.72L45.792 58.248ZM55.344 58.2C56.4 60.888 57.312 64.536 57.6 66.696L63.312 65.592C62.928 63.432 61.824 59.976 60.72 57.336L55.344 58.2ZM64.896 58.104C66.96 60.888 69.408 64.872 70.416 67.224L76.272 65.352C75.072 62.856 72.432 59.16 70.416 56.424L64.896 58.104ZM66.432 33.528V43.464C65.52 42.648 64.32 41.688 62.976 40.728C63.36 38.52 63.552 36.12 63.696 33.528H66.432ZM72.096 50.568C71.904 50.568 71.76 50.52 71.664 50.328C71.568 50.136 71.568 49.512 71.568 48.456V28.488H63.936C63.984 26.52 63.984 24.456 64.032 22.344H58.896C58.896 24.504 58.848 26.52 58.8 28.488H54.624V33.528H58.656C58.608 34.968 58.512 36.36 58.368 37.704C57.504 37.176 56.688 36.696 55.92 36.264L53.616 40.488C54.816 41.208 56.16 42.12 57.456 43.032C56.688 46.152 55.44 48.744 53.472 50.904V49.416C50.928 49.656 48.336 49.848 45.792 50.088V47.544H52.32V43.56H45.792V41.112C46.368 41.352 47.136 41.448 48.144 41.448H50.544C52.8 41.448 53.856 40.632 54.192 37.176C53.136 36.936 51.504 36.408 50.784 35.832C50.688 37.8 50.544 38.04 49.968 38.04H48.864C48.336 38.04 48.24 37.944 48.24 37.08V35.112H53.52V31.176H45.792V28.824H52.176V24.984H45.792V22.392H40.752V24.984H34.368V28.824H40.752V31.176H32.688V35.112H37.488C37.056 37.368 35.76 38.664 31.728 39.384C32.592 40.152 33.648 41.736 33.984 42.744C39.552 41.448 41.28 39.048 41.856 35.112H44.256V37.08C44.256 39.192 44.496 40.392 45.504 40.968H40.752V43.56H33.696V47.544H40.752V50.472C37.584 50.712 34.704 50.904 32.352 51.048L32.688 55.704C38.304 55.176 46.08 54.408 53.52 53.64V53.544C54.336 54.36 55.104 55.32 55.536 56.04C58.56 53.496 60.528 50.232 61.728 46.248C62.832 47.16 63.792 48.072 64.512 48.84L66.432 45.048V48.552C66.432 52.056 66.72 53.064 67.488 53.928C68.304 54.744 69.504 55.08 70.608 55.08H72.72C73.632 55.08 74.64 54.888 75.264 54.36C75.888 53.832 76.368 53.064 76.608 51.912C76.896 50.808 77.088 47.832 77.136 45.432C75.936 45 74.544 44.28 73.632 43.512C73.632 46.008 73.584 47.976 73.488 48.84C73.44 49.752 73.344 50.136 73.2 50.328C73.056 50.52 72.864 50.568 72.672 50.568H72.096ZM94.896 28.872V31.368H87.6V28.872H94.896ZM87.6 38.184V35.448H94.896V38.184H87.6ZM100.224 24.264H81.936V67.176H87.6V42.744H100.224V24.264ZM109.008 38.28V35.448H116.592V38.28H109.008ZM116.592 28.872V31.368H109.008V28.872H116.592ZM122.352 24.264H103.584V42.888H116.592V60.168C116.592 61.08 116.256 61.416 115.248 61.416C114.24 61.416 110.688 61.464 107.664 61.272C108.528 62.808 109.44 65.496 109.68 67.128C114.336 67.128 117.504 67.032 119.568 66.072C121.68 65.208 122.352 63.528 122.352 60.264V24.264ZM139.44 32.616H160.224V34.68H139.44V32.616ZM139.44 27.288H160.224V29.304H139.44V27.288ZM171.024 40.152H152.832V38.232H165.984V23.784H133.968V38.232H147.024V40.152H128.688V44.616H171.024V40.152ZM138.96 57.24C136.368 59.352 131.76 61.32 127.536 62.568C128.736 63.48 130.752 65.496 131.712 66.552C135.84 64.92 140.976 62.136 144.192 59.352L138.96 57.24ZM140.592 50.136H159.408V53.208H140.592V50.136ZM165.168 57.144V46.152H135.12V57.144H147.264V62.04C147.264 62.568 147.024 62.712 146.352 62.76C145.728 62.808 143.136 62.808 141.168 62.712C141.84 63.96 142.512 65.688 142.8 67.08C146.16 67.08 148.608 67.08 150.528 66.456C152.4 65.832 152.928 64.776 152.928 62.28V57.144H165.168ZM155.088 60.312C159.12 61.944 164.448 64.68 166.992 66.504L171.12 63.144C168.192 61.224 162.768 58.776 158.88 57.288L155.088 60.312ZM181.536 29.976C182.208 32.136 182.688 34.824 182.784 36.648L185.328 35.88C185.184 34.008 184.56 31.176 183.792 28.968L181.536 29.64V27.624H185.568V38.04H181.536V29.976ZM193.152 29.736L190.848 28.92C190.512 30.84 189.696 33.624 189.024 35.544V27.624H193.152V29.736ZM189.024 38.04V35.976L190.992 36.696C191.616 35.304 192.384 33.24 193.152 31.224V38.04H189.024ZM176.352 55.656C182.16 55.416 190.368 54.984 198.144 54.504L198.24 50.088C195.456 50.184 192.576 50.328 189.792 50.424V48.312H197.472V43.992H189.792V41.88H197.568V23.784H177.264V41.88H184.752V43.992H177.36V48.312H184.752V50.616C181.536 50.712 178.608 50.808 176.208 50.856L176.352 55.656ZM178.848 67.176C180.864 64.968 181.68 61.32 182.256 57.912L178.416 56.76C177.984 59.928 176.88 63.24 175.152 65.256L178.848 67.176ZM182.592 57.048C183.12 59.736 183.504 63.192 183.408 65.448L187.104 65.016C187.056 62.712 186.672 59.304 186.096 56.616L182.592 57.048ZM187.392 56.856C188.304 59.4 189.12 62.712 189.312 64.872L192.864 64.152C192.576 61.944 191.712 58.728 190.8 56.184L187.392 56.856ZM192.048 56.424C193.536 58.824 194.976 61.992 195.552 64.104L199.152 62.616C198.528 60.504 196.992 57.432 195.456 55.176L192.048 56.424ZM213.312 60.12H204.432V50.088H213.312V60.12ZM220.368 37.512V32.232H211.104V22.392H205.536V44.904H199.248V67.128H204.432V65.256H213.312V66.936H218.784V44.904H211.104V37.512H220.368Z" fill="#02A5B6"/>
<circle cx="5" cy="25" r="5" fill="#FD5A5A"/>
<circle cx="235" cy="73" r="5" fill="#FD5A5A"/>
<circle cx="220.5" cy="65.5" r="2.5" fill="#FBAE8C"/>
<circle cx="202" cy="73" r="2" fill="#FFC634"/>
<circle cx="214.5" cy="78.5" r="3.5" fill="#4BA9FF"/>
<circle cx="233.5" cy="56.5" r="3.5" fill="#FFE600"/>
<circle cx="29.5" cy="32.5" r="2.5" fill="#FFE600"/>
<circle cx="38" cy="13" r="3" fill="#4BA9FF"/>
<circle cx="18.5" cy="38.5" r="3.5" fill="#56FF67"/>
<circle cx="21.5" cy="19.5" r="3.5" fill="#FA8E60"/>
</svg>
